<svg xmlns="http://www.w3.org/2000/svg" version="1.1"
    xmlns:xlink="http://www.w3.org/1999/xlink"
    xmlns:svgjs="http://svgjs.com/svgjs" width="512" height="512" x="0" y="0" viewBox="0 0 32 32" style="enable-background:new 0 0 512 512" xml:space="preserve" class="">
    <g>
        <linearGradient id="gradient-fill" x1="0" y1="0" x2="800" y2="0" gradientUnits="userSpaceOnUse">
            <stop offset="0" stop-color="#000428" />
            <stop offset="0.14285714285714285" stop-color="#021335" />
            <stop offset="0.2857142857142857" stop-color="#031c44" />
            <stop offset="0.42857142857142855" stop-color="#052552" />
            <stop offset="0.5714285714285714" stop-color="#072f62" />
            <stop offset="0.7142857142857142" stop-color="#073971" />
            <stop offset="0.8571428571428571" stop-color="#054381" />
            <stop offset="1" stop-color="#004e92" />
        </linearGradient>
        <linearGradient xmlns="http://www.w3.org/2000/svg" id="linear-gradient-3" x1="16.125" x2="15.912"
            xmlns:xlink="http://www.w3.org/1999/xlink" xlink:href="#linear-gradient-2" y1="26.023" y2="5.597"></linearGradient>

            <path xmlns="http://www.w3.org/2000/svg" d="M 27 18.168 C 26.993 21.583 24.227 24.35 20.812 24.356 L 14.128 24.356 C 14.809 25.341 14.738 26.661 13.956 27.567 C 12.963 28.695 11.234 28.776 10.14 27.746 L 5.84 23.6 C 4.712 22.51 4.712 20.702 5.84 19.612 L 10.14 15.465 C 10.66 14.964 11.364 14.698 12.086 14.73 C 13.53 14.818 14.639 16.042 14.586 17.487 C 14.562 17.975 14.402 18.446 14.125 18.848 L 16.225 18.848 C 16.392 19.349 16.655 19.811 17 20.21 C 18.525 21.898 21.133 22.022 22.811 20.485 L 25.692 17.707 C 26.124 17.295 27 17.505 27 18.168 Z" fill="#12a4e3" data-original="url(#gradient-fill)" class=""></path>
            <path xmlns="http://www.w3.org/2000/svg" d="m27 11.876a2.743 2.743 0 0 1 -.846 1.994l-4.3 4.147a2.629 2.629 0 0 1 -3.988-3.383h-2.09a4.656 4.656 0 0 0 -.282-.654 4.058 4.058 0 0 0 -6.31-.98l-2.884 2.775a.919.919 0 0 1 -.99.124.688.688 0 0 1 -.323-.585 6.2 6.2 0 0 1 6.188-6.188h6.684a2.627 2.627 0 0 1 .172-3.211 2.679 2.679 0 0 1 3.816-.179l4.3 4.146a2.746 2.746 0 0 1 .853 1.994z" fill="#12a4e3" data-original="url(#gradient-fill)" class=""></path>
    </g>
</svg>