<svg xmlns="http://www.w3.org/2000/svg" version="1.1" xmlns:xlink="http://www.w3.org/1999/xlink" xmlns:svgjs="http://svgjs.com/svgjs" width="512" height="512" x="0" y="0" viewBox="0 0 512 512" style="enable-background:new 0 0 512 512" xml:space="preserve" class=""><g><g xmlns="http://www.w3.org/2000/svg"><g><g><path d="m512 295.627c-19.75 122.671-126.111 216.373-254.359 216.373-142.294 0-257.641-115.347-257.641-257.641 0-128.248 93.702-234.609 216.373-254.359l241.997 241.997z" fill="#fe255f" data-original="#fe255f"></path><path d="m512 295.63c-19.75 122.67-126.11 216.37-254.36 216.37-103.26 0-192.33-60.74-233.42-148.45 47.17 52.79 115.78 86.01 192.15 86.01 122.01 0 224.21-84.81 250.87-198.69z" fill="#e01152" data-original="#e01152"></path><path d="m458.751 254.359c0 111.071-90.04 201.11-201.11 201.11s-201.111-90.039-201.111-201.11c0-111.07 90.04-201.11 201.11-201.11 4.149 0 8.277.127 12.362.381l188.368 188.367c.254 4.086.381 8.213.381 12.362z" fill="#95ffea" data-original="#95ffea" class=""></path><path d="m458.75 254.36c0 111.07-90.04 201.11-201.11 201.11-66.16 0-124.85-31.94-161.5-81.25 33.47 24.89 74.94 39.61 119.86 39.61 111.07 0 201.11-90.04 201.11-201.11 0-4.15-.13-8.28-.38-12.36l41.64 41.64c.25 4.08.38 8.21.38 12.36z" fill="#31ffd7" data-original="#31ffd7"></path><g><path d="m235.188 380.762-103.95-103.95c-12.4-12.4-12.4-32.505 0-44.905l103.951-103.951c12.4-12.4 32.505-12.4 44.905 0l103.951 103.951c12.4 12.4 12.4 32.505 0 44.905l-103.952 103.95c-12.4 12.401-32.505 12.401-44.905 0z" fill="#ff4881" data-original="#ff4881" class=""></path><path d="m214.63 148.514-61.286 61.286c-10.149 10.149-10.128 26.599.028 36.742.124.124.248.247.371.371 10.142 10.13 26.573 10.131 36.709-.005l61.285-61.285c10.247-10.247 10.247-26.861 0-37.108-10.246-10.248-26.86-10.248-37.107-.001z" fill="#fc709b" data-original="#fc709b" class=""></path><path d="m224.415 212.946 1.655-1.655c10.151-10.151 10.145-26.613-.015-36.756-.124-.124-.248-.247-.371-.371-10.147-10.129-26.584-10.119-36.722.019l-1.655 1.655c-10.145 10.145-10.145 26.592 0 36.737l.371.371c10.144 10.144 26.592 10.144 36.737 0z" fill="#f7a6c1" data-original="#f7a6c1"></path><path d="m384.048 276.809-103.958 103.957c-12.394 12.394-32.504 12.394-44.898 0l-79.657-79.657c18.088 10.997 39.32 17.326 62.034 17.326 66.035 0 119.57-53.535 119.57-119.57 0-5.006-.307-9.928-.91-14.776l47.819 47.819c12.394 12.396 12.394 32.506 0 44.901z" fill="#fe255f" data-original="#fe255f"></path><path d="m294.543 211.697h-73.804c-5.009 0-7.813 5.776-4.714 9.712l23.02 29.239c1.714 2.177 1.714 5.246 0 7.423l-23.02 29.239c-3.099 3.936-.295 9.712 4.714 9.712h73.804c5.009 0 7.813-5.776 4.714-9.712l-23.02-29.239c-1.714-2.177-1.714-5.246 0-7.423l23.02-29.239c3.098-3.936.295-9.712-4.714-9.712z" fill="#ffffff" data-original="#ffffff" class=""></path></g></g><path d="m213.092 41.268c0-14.045 1.122-27.836 3.281-41.268l295.627 295.627c-13.431 2.159-27.223 3.281-41.268 3.281-142.294 0-257.64-115.346-257.64-257.64z" fill="#ffd2e3" data-original="#ffd2e3"></path></g><path d="m51.212 339.745c10.857-6.472 15.968-19.406 12.595-31.587-4.742-17.124-7.277-35.165-7.277-53.798 0-68.6 34.352-129.169 86.788-165.464 11.683-8.086 15.423-23.624 8.76-36.173-.088-.166-.177-.333-.265-.5-7.851-14.81-26.902-19.352-40.682-9.809-67.145 46.502-111.131 124.082-111.131 211.946 0 23.92 3.267 47.074 9.371 69.048 4.952 17.826 25.458 26.101 41.35 16.629z" fill="#ff4881" data-original="#ff4881" class=""></path><path d="m70.2 77.613c-32.632 34.593-55.787 78.218-65.33 126.732-3.431 17.444 9.98 33.67 27.759 33.67 13.505 0 25.113-9.555 27.729-22.805 7.462-37.789 25.514-71.767 50.935-98.728 10.617-11.261 10.053-28.976-1.207-39.593-.138-.13-.276-.261-.415-.391-11.199-10.575-28.902-10.089-39.471 1.115z" fill="#fc709b" data-original="#fc709b" class=""></path><path d="m35.659 123.596c-2.928 4.956-5.694 10.019-8.292 15.181-7.534 14.97-.518 33.188 15.203 38.995.177.065.354.131.531.196 13.452 4.96 28.39-1.045 34.833-13.853 1.998-3.972 4.124-7.868 6.372-11.684 7.518-12.762 3.737-29.178-8.571-37.419-.157-.105-.314-.21-.471-.315-13.315-8.909-31.456-4.894-39.605 8.899z" fill="#f7a6c1" data-original="#f7a6c1"></path><path d="m346.138 206.071c-32.202-24.074-56.838-57.704-69.686-96.704-3.997-12.132-16.47-19.326-28.987-16.778l-.513.104c-15.407 3.137-24.565 19.155-19.354 33.99 16.969 48.303 47.937 90 88.025 120.265 12.459 9.406 30.424 5.171 37.546-8.721.078-.152.156-.304.234-.456 5.614-10.931 2.577-24.343-7.265-31.7z" fill="#ffeef5" data-original="#ffeef5"></path><path d="m291.994 144.495c-1.754-3.108-3.426-6.268-5.014-9.478-6.014-12.156-20.388-17.536-32.856-12.198-.159.068-.318.136-.477.204-13.459 5.757-19.402 21.662-12.771 34.712 2.097 4.126 4.302 8.188 6.611 12.183 7.811 13.511 25.91 16.69 38.001 6.822.132-.108.264-.215.396-.323 9.5-7.746 12.133-21.248 6.11-31.922z" fill="#ffffff" data-original="#ffffff" class=""></path></g></g></svg>