<svg id="Layer_1" data-name="Layer 1"
    xmlns="http://www.w3.org/2000/svg" viewBox="0 0 605.47 590.41">
    <defs>
        <style>.cls-1{fill:#2e3464;}.cls-2{fill:#1c8b99;}.cls-3{fill:#303665;}.cls-4{fill:#1d8b99;}.cls-5{fill:#217382;}</style>
    </defs>
    <path class="cls-1" d="M499.63,432.27q85.76-85.72,171.56-171.42c27.79-27.65,70.16-28.6,97.52-2.62,29.33,27.85,31,69.28,4,99.46-2,2.19-4,4.27-6.11,6.36q-41,41.26-82,82.53c-32,32.21-28.06,83.45,5.84,113.43A1197.75,1197.75,0,0,1,777,645.34c25.35,27.48,21.36,70.61-6.11,96.06-27.64,25.61-69.57,25.47-96.38-.93-32.68-32.17-64.91-64.81-97.35-97.22-2.07-2.06-4.3-4-6.46-5.93q-43.47-43.62-86.91-87.27c-13.57-13.7-21.63-30.42-20.39-49.66.81-12.54,5.52-24.82,8.48-37.22Z" transform="translate(-237.63 -239.41)"/>
    <path class="cls-2" d="M499.63,432.27l-27.73,30.9c-2.2,1.28-4.77,2.19-6.54,3.91-24.86,24.23-25.12,71.17-.61,95.71q30.51,30.57,61.1,61.07c9.57,9.5,19.38,18.76,29.08,28.13-13.19,13.38-26.3,26.83-39.58,40.13Q456.78,750.8,398.06,809.35c-21.11,21-50.84,26.12-79,14.06-24.67-10.56-41.76-37.48-41.05-65.62.47-18.71,7.67-34.76,21-48q38.05-38,76-76.13C388.09,620.44,401,607,405,587.89c6.31-30-1.4-55.35-23.89-76.77-30.22-28.77-60.74-57.36-89.07-87.93-18.67-20.14-20.72-45.82-9.87-71,11-25.45,30.93-40.17,58.95-42.55,22.13-1.87,40.76,5.72,56.43,21.54C429,362.92,460.69,394.4,492.34,426,494.61,428.21,497.19,430.17,499.63,432.27Z" transform="translate(-237.63 -239.41)"/>
    <path class="cls-3" d="M843.1,574.24c-1.92,12-8.35,22.3-18.2,26.13-11.14,4.33-21.38,2.51-30-6q-30-29.8-59.88-59.71c-4.78-4.77-9.77-9.33-14.49-14.16-11.5-11.8-11.76-28.51-.2-40.18q36.9-37.22,74.22-74c11.42-11.26,26.87-11.44,37.83-1,11.33,10.78,12.06,26.53,1,38.54-11.32,12.31-23.62,23.72-34.85,36.1-11.78,13-11,30.06,1.36,42.72,10.67,10.92,22.08,21.15,32.23,32.52C836.93,560.49,839.52,567.81,843.1,574.24Z" transform="translate(-237.63 -239.41)"/>
    <path class="cls-4" d="M265.89,465.07c5.76,3.1,12.57,5.11,17.11,9.48,25.66,24.63,50.9,49.71,76,74.89,11.1,11.13,11,28.38-.12,39.65q-36.92,37.29-74.4,74c-11.38,11.13-27.23,11-38,.56-11.24-10.91-11.64-26.47-.4-38.52,11-11.82,22.9-22.85,33.78-34.79,12.88-14.11,12.29-30.23-1.06-44-11.26-11.6-23-22.78-34.13-34.47-7.94-8.32-8.79-18.27-4.49-28.64S254.61,466.42,265.89,465.07Z" transform="translate(-237.63 -239.41)"/>
    <path class="cls-5" d="M554.93,652c-9.7-9.37-19.51-18.63-29.08-28.13q-30.66-30.43-61.1-61.07c-24.51-24.54-24.25-71.48.61-95.71,1.77-1.72,4.34-2.63,6.54-3.91-3,12.4-7.67,24.68-8.48,37.22-1.24,19.24,6.82,36,20.39,49.66q43.32,43.77,86.91,87.27Z" transform="translate(-237.63 -239.41)"/>
</svg>